{
	"patcher" : 	{
		"fileversion" : 1,
		"appversion" : 		{
			"major" : 8,
			"minor" : 0,
			"revision" : 5,
			"architecture" : "x64",
			"modernui" : 1
		}
,
		"classnamespace" : "box",
		"rect" : [ 77.0, 79.0, 262.0, 318.0 ],
		"bglocked" : 0,
		"openinpresentation" : 1,
		"default_fontsize" : 12.0,
		"default_fontface" : 0,
		"default_fontname" : "Arial",
		"gridonopen" : 1,
		"gridsize" : [ 15.0, 15.0 ],
		"gridsnaponopen" : 1,
		"objectsnaponopen" : 1,
		"statusbarvisible" : 2,
		"toolbarvisible" : 1,
		"lefttoolbarpinned" : 0,
		"toptoolbarpinned" : 0,
		"righttoolbarpinned" : 0,
		"bottomtoolbarpinned" : 0,
		"toolbars_unpinned_last_save" : 0,
		"tallnewobj" : 0,
		"boxanimatetime" : 200,
		"enablehscroll" : 1,
		"enablevscroll" : 1,
		"devicewidth" : 0.0,
		"description" : "",
		"digest" : "",
		"tags" : "",
		"style" : "",
		"subpatcher_template" : "",
		"boxes" : [ 			{
				"box" : 				{
					"cantchange" : 1,
					"format" : 6,
					"id" : "obj-29",
					"ignoreclick" : 1,
					"maxclass" : "flonum",
					"numdecimalplaces" : 2,
					"numinlets" : 1,
					"numoutlets" : 2,
					"outlettype" : [ "", "bang" ],
					"parameter_enable" : 0,
					"patching_rect" : [ 171.0, 215.0, 57.0, 22.0 ],
					"presentation" : 1,
					"presentation_rect" : [ 44.5, 161.5, 58.0, 22.0 ],
					"style" : "chiba",
					"varname" : "number[1]"
				}

			}
, 			{
				"box" : 				{
					"cantchange" : 1,
					"format" : 6,
					"id" : "obj-28",
					"ignoreclick" : 1,
					"maxclass" : "flonum",
					"numdecimalplaces" : 2,
					"numinlets" : 1,
					"numoutlets" : 2,
					"outlettype" : [ "", "bang" ],
					"parameter_enable" : 0,
					"patching_rect" : [ 122.5, 215.0, 57.0, 22.0 ],
					"presentation" : 1,
					"presentation_rect" : [ 157.5, 161.5, 58.0, 22.0 ],
					"style" : "chiba",
					"varname" : "number"
				}

			}
, 			{
				"box" : 				{
					"fontsize" : 14.0,
					"id" : "obj-26",
					"maxclass" : "comment",
					"numinlets" : 1,
					"numoutlets" : 0,
					"patching_rect" : [ 166.0, 136.0, 58.0, 22.0 ],
					"presentation" : 1,
					"presentation_rect" : [ 157.5, 202.0, 58.0, 22.0 ],
					"text" : "DEPTH",
					"textcolor" : [ 0.737254901960784, 0.729411764705882, 0.729411764705882, 1.0 ]
				}

			}
, 			{
				"box" : 				{
					"fontsize" : 14.0,
					"id" : "obj-25",
					"maxclass" : "comment",
					"numinlets" : 1,
					"numoutlets" : 0,
					"patching_rect" : [ 122.5, 136.0, 45.0, 22.0 ],
					"presentation" : 1,
					"presentation_rect" : [ 50.0, 202.0, 45.0, 22.0 ],
					"text" : "TIME",
					"textcolor" : [ 0.737254901960784, 0.729411764705882, 0.729411764705882, 1.0 ]
				}

			}
, 			{
				"box" : 				{
					"floatoutput" : 1,
					"id" : "obj-17",
					"maxclass" : "dial",
					"mult" : 0.01,
					"numinlets" : 1,
					"numoutlets" : 1,
					"outlettype" : [ "float" ],
					"parameter_enable" : 0,
					"patching_rect" : [ 122.5, 158.0, 40.0, 40.0 ],
					"presentation" : 1,
					"presentation_rect" : [ 130.0, 118.0, 111.0, 111.0 ],
					"size" : 10000.0,
					"style" : "chiba"
				}

			}
, 			{
				"box" : 				{
					"floatoutput" : 1,
					"id" : "obj-16",
					"maxclass" : "dial",
					"mult" : 0.01,
					"numinlets" : 1,
					"numoutlets" : 1,
					"outlettype" : [ "float" ],
					"parameter_enable" : 0,
					"patching_rect" : [ 171.0, 158.0, 40.0, 40.0 ],
					"presentation" : 1,
					"presentation_rect" : [ 17.0, 118.0, 111.0, 111.0 ],
					"size" : 10000.0,
					"style" : "chiba"
				}

			}
, 			{
				"box" : 				{
					"id" : "obj-9",
					"maxclass" : "newobj",
					"numinlets" : 2,
					"numoutlets" : 1,
					"outlettype" : [ "signal" ],
					"patching_rect" : [ 75.0, 289.0, 29.5, 22.0 ],
					"text" : "+~"
				}

			}
, 			{
				"box" : 				{
					"id" : "obj-8",
					"markers" : [ -60, -48, -36, -24, -12, -6, 0, 6 ],
					"markersused" : 8,
					"maxclass" : "levelmeter~",
					"numinlets" : 1,
					"numoutlets" : 1,
					"outlettype" : [ "" ],
					"patching_rect" : [ 122.5, 261.0, 128.0, 64.0 ],
					"presentation" : 1,
					"presentation_rect" : [ 17.0, 234.0, 122.0, 61.0 ],
					"style" : "chiba"
				}

			}
, 			{
				"box" : 				{
					"id" : "obj-7",
					"maxclass" : "newobj",
					"numinlets" : 4,
					"numoutlets" : 2,
					"outlettype" : [ "signal", "signal" ],
					"patcher" : 					{
						"fileversion" : 1,
						"appversion" : 						{
							"major" : 8,
							"minor" : 0,
							"revision" : 5,
							"architecture" : "x64",
							"modernui" : 1
						}
,
						"classnamespace" : "box",
						"rect" : [ 453.0, 79.0, 586.0, 444.0 ],
						"bglocked" : 0,
						"openinpresentation" : 0,
						"default_fontsize" : 12.0,
						"default_fontface" : 0,
						"default_fontname" : "Arial",
						"gridonopen" : 1,
						"gridsize" : [ 15.0, 15.0 ],
						"gridsnaponopen" : 1,
						"objectsnaponopen" : 1,
						"statusbarvisible" : 2,
						"toolbarvisible" : 1,
						"lefttoolbarpinned" : 0,
						"toptoolbarpinned" : 0,
						"righttoolbarpinned" : 0,
						"bottomtoolbarpinned" : 0,
						"toolbars_unpinned_last_save" : 0,
						"tallnewobj" : 0,
						"boxanimatetime" : 200,
						"enablehscroll" : 1,
						"enablevscroll" : 1,
						"devicewidth" : 0.0,
						"description" : "",
						"digest" : "",
						"tags" : "",
						"style" : "",
						"subpatcher_template" : "",
						"visible" : 1,
						"boxes" : [ 							{
								"box" : 								{
									"comment" : "Right",
									"id" : "obj-15",
									"index" : 2,
									"maxclass" : "outlet",
									"numinlets" : 1,
									"numoutlets" : 0,
									"patching_rect" : [ 166.0, 311.0, 30.0, 30.0 ]
								}

							}
, 							{
								"box" : 								{
									"comment" : "Left",
									"id" : "obj-10",
									"index" : 1,
									"maxclass" : "outlet",
									"numinlets" : 1,
									"numoutlets" : 0,
									"patching_rect" : [ 60.0, 311.0, 30.0, 30.0 ]
								}

							}
, 							{
								"box" : 								{
									"comment" : "Depth",
									"id" : "obj-9",
									"index" : 4,
									"maxclass" : "inlet",
									"numinlets" : 0,
									"numoutlets" : 1,
									"outlettype" : [ "float" ],
									"patching_rect" : [ 443.0, 60.0, 30.0, 30.0 ]
								}

							}
, 							{
								"box" : 								{
									"comment" : "Time",
									"id" : "obj-8",
									"index" : 3,
									"maxclass" : "inlet",
									"numinlets" : 0,
									"numoutlets" : 1,
									"outlettype" : [ "float" ],
									"patching_rect" : [ 302.0, 60.0, 30.0, 30.0 ]
								}

							}
, 							{
								"box" : 								{
									"comment" : "Right",
									"id" : "obj-7",
									"index" : 2,
									"maxclass" : "inlet",
									"numinlets" : 0,
									"numoutlets" : 1,
									"outlettype" : [ "signal" ],
									"patching_rect" : [ 166.0, 60.0, 30.0, 30.0 ]
								}

							}
, 							{
								"box" : 								{
									"comment" : "Left",
									"id" : "obj-6",
									"index" : 1,
									"maxclass" : "inlet",
									"numinlets" : 0,
									"numoutlets" : 1,
									"outlettype" : [ "signal" ],
									"patching_rect" : [ 60.0, 60.0, 30.0, 30.0 ]
								}

							}
 ],
						"lines" : [ 							{
								"patchline" : 								{
									"destination" : [ "obj-10", 0 ],
									"source" : [ "obj-6", 0 ]
								}

							}
, 							{
								"patchline" : 								{
									"destination" : [ "obj-15", 0 ],
									"source" : [ "obj-7", 0 ]
								}

							}
 ]
					}
,
					"patching_rect" : [ 15.0, 149.0, 73.0, 22.0 ],
					"saved_object_attributes" : 					{
						"description" : "",
						"digest" : "",
						"globalpatchername" : "",
						"tags" : ""
					}
,
					"text" : "p DelRevFX"
				}

			}
, 			{
				"box" : 				{
					"id" : "obj-6",
					"maxclass" : "gain~",
					"multichannelvariant" : 0,
					"numinlets" : 1,
					"numoutlets" : 2,
					"outlettype" : [ "signal", "" ],
					"parameter_enable" : 0,
					"patching_rect" : [ 44.0, 192.0, 21.0, 81.0 ]
				}

			}
, 			{
				"box" : 				{
					"id" : "obj-5",
					"maxclass" : "gain~",
					"multichannelvariant" : 0,
					"numinlets" : 1,
					"numoutlets" : 2,
					"outlettype" : [ "signal", "" ],
					"parameter_enable" : 0,
					"patching_rect" : [ 18.0, 192.0, 21.0, 81.0 ],
					"presentation" : 1,
					"presentation_rect" : [ 151.5, 274.0, 87.0, 21.0 ],
					"style" : "chiba"
				}

			}
, 			{
				"box" : 				{
					"id" : "obj-4",
					"maxclass" : "ezdac~",
					"numinlets" : 2,
					"numoutlets" : 0,
					"patching_rect" : [ 18.0, 289.0, 45.0, 45.0 ],
					"presentation" : 1,
					"presentation_rect" : [ 203.0, 231.0, 38.0, 38.0 ],
					"style" : "chiba"
				}

			}
, 			{
				"box" : 				{
					"bgmode" : 0,
					"border" : 0,
					"clickthrough" : 0,
					"enablehscroll" : 0,
					"enablevscroll" : 0,
					"id" : "obj-3",
					"lockeddragscroll" : 0,
					"maxclass" : "bpatcher",
					"name" : "demosound.maxpat",
					"numinlets" : 0,
					"numoutlets" : 1,
					"offset" : [ 0.0, 0.0 ],
					"outlettype" : [ "signal" ],
					"patching_rect" : [ 15.0, 24.607476592063904, 223.0, 95.0 ],
					"presentation" : 1,
					"presentation_rect" : [ 18.0, 16.607476592063904, 223.0, 95.0 ],
					"viewvisibility" : 1
				}

			}
, 			{
				"box" : 				{
					"angle" : 270.0,
					"border" : 1,
					"grad1" : [ 0.2, 0.2, 0.2, 1.0 ],
					"grad2" : [ 0.2, 0.2, 0.2, 1.0 ],
					"id" : "obj-228",
					"maxclass" : "panel",
					"mode" : 1,
					"numinlets" : 1,
					"numoutlets" : 0,
					"patching_rect" : [ 75.0, 341.0, 117.0, 110.0 ],
					"presentation" : 1,
					"presentation_rect" : [ 11.0, 10.5, 236.933349000000135, 292.5 ],
					"proportion" : 0.5,
					"rounded" : 16
				}

			}
 ],
		"lines" : [ 			{
				"patchline" : 				{
					"destination" : [ "obj-29", 0 ],
					"order" : 0,
					"source" : [ "obj-16", 0 ]
				}

			}
, 			{
				"patchline" : 				{
					"destination" : [ "obj-7", 3 ],
					"order" : 1,
					"source" : [ "obj-16", 0 ]
				}

			}
, 			{
				"patchline" : 				{
					"destination" : [ "obj-28", 0 ],
					"order" : 0,
					"source" : [ "obj-17", 0 ]
				}

			}
, 			{
				"patchline" : 				{
					"destination" : [ "obj-7", 2 ],
					"order" : 1,
					"source" : [ "obj-17", 0 ]
				}

			}
, 			{
				"patchline" : 				{
					"destination" : [ "obj-7", 1 ],
					"order" : 0,
					"source" : [ "obj-3", 0 ]
				}

			}
, 			{
				"patchline" : 				{
					"destination" : [ "obj-7", 0 ],
					"order" : 1,
					"source" : [ "obj-3", 0 ]
				}

			}
, 			{
				"patchline" : 				{
					"destination" : [ "obj-4", 0 ],
					"order" : 1,
					"source" : [ "obj-5", 0 ]
				}

			}
, 			{
				"patchline" : 				{
					"destination" : [ "obj-6", 0 ],
					"midpoints" : [ 30.5, 283.0, 42.0, 283.0, 42.0, 181.0, 53.5, 181.0 ],
					"source" : [ "obj-5", 1 ]
				}

			}
, 			{
				"patchline" : 				{
					"destination" : [ "obj-9", 0 ],
					"order" : 0,
					"source" : [ "obj-5", 0 ]
				}

			}
, 			{
				"patchline" : 				{
					"destination" : [ "obj-4", 1 ],
					"order" : 1,
					"source" : [ "obj-6", 0 ]
				}

			}
, 			{
				"patchline" : 				{
					"destination" : [ "obj-9", 1 ],
					"order" : 0,
					"source" : [ "obj-6", 0 ]
				}

			}
, 			{
				"patchline" : 				{
					"destination" : [ "obj-5", 0 ],
					"source" : [ "obj-7", 0 ]
				}

			}
, 			{
				"patchline" : 				{
					"destination" : [ "obj-6", 0 ],
					"source" : [ "obj-7", 1 ]
				}

			}
, 			{
				"patchline" : 				{
					"destination" : [ "obj-8", 0 ],
					"source" : [ "obj-9", 0 ]
				}

			}
 ],
		"parameters" : 		{
			"obj-3::obj-35" : [ "[5]", "Level", 0 ],
			"obj-3::obj-21::obj-6" : [ "live.tab[3]", "live.tab[1]", 0 ],
			"parameterbanks" : 			{

			}

		}
,
		"dependency_cache" : [ 			{
				"name" : "demosound.maxpat",
				"bootpath" : "C74:/help/msp",
				"type" : "JSON",
				"implicit" : 1
			}
, 			{
				"name" : "sine.svg",
				"bootpath" : "C74:/media/max/picts/m4l-picts",
				"type" : "svg",
				"implicit" : 1
			}
, 			{
				"name" : "saw.svg",
				"bootpath" : "C74:/media/max/picts/m4l-picts",
				"type" : "svg",
				"implicit" : 1
			}
, 			{
				"name" : "square.svg",
				"bootpath" : "C74:/media/max/picts/m4l-picts",
				"type" : "svg",
				"implicit" : 1
			}
, 			{
				"name" : "random.svg",
				"bootpath" : "C74:/media/max/picts/m4l-picts",
				"type" : "svg",
				"implicit" : 1
			}
, 			{
				"name" : "interfacecolor.js",
				"bootpath" : "C74:/interfaces",
				"type" : "TEXT",
				"implicit" : 1
			}
 ],
		"autosave" : 0
	}

}
